<svg width="480" height="100" fill="none" xmlns="http://www.w3.org/2000/svg"><path d="M39.08 29.446l1.095-3.698h8.492l-3.333 14.199h-8.537c-.137-2.146-1.096-3.927-2.968-5.16-1.917-1.323-4.52-1.916-7.898-1.916-2.74 0-5.022.593-6.574 1.689-1.552 1.095-2.374 2.51-2.374 4.2 0 1.552.457 2.739 1.552 3.606 1.096.822 3.242 1.918 6.574 3.242l2.74 1.095c5.752 2.374 9.541 4.794 11.595 7.168 2.055 2.374 2.968 5.25 2.968 8.857 0 4.52-1.69 8.126-5.159 10.865-3.47 2.74-8.491 4.063-14.928 4.063-6.072 0-10.5-1.415-13.149-4.291l-.593 3.333H0L3.333 62.5h8.582c0 2.374 1.096 4.29 3.105 5.615 2.009 1.324 4.794 2.009 8.263 2.009 2.968 0 5.387-.594 7.168-1.78 1.78-1.188 2.648-2.74 2.648-4.657 0-1.918-.73-3.47-2.283-4.657-1.552-1.187-4.2-2.648-7.898-4.063L19.22 53.55c-3.835-1.689-6.711-3.606-8.583-5.752-1.872-2.146-2.739-4.794-2.739-7.898 0-2.648.73-5.159 2.283-7.305 1.552-2.145 3.698-4.063 6.574-5.25 2.876-1.324 5.98-1.917 9.45-1.917 4.976-.41 9.405 1.004 12.874 4.017zm63.549 16.71c0 6.072-1.324 11.596-4.063 16.48-2.74 4.885-6.437 8.583-11.094 11.368-4.657 2.74-9.679 4.063-15.157 4.063-4.52 0-8.583-.958-11.961-2.739a19.553 19.553 0 01-7.898-7.624c-1.918-3.333-2.876-7.168-2.876-11.459 0-5.98 1.415-11.459 4.291-16.253 2.876-4.884 6.711-8.582 11.368-11.367 4.793-2.74 9.906-4.064 15.43-4.064 6.712 0 12.053 1.918 16.025 5.844 3.926 3.698 5.935 8.948 5.935 15.75zM72.771 68.982c3.835 0 7.168-1.095 10.136-3.104 2.967-2.009 5.387-4.885 7.03-8.355 1.69-3.47 2.511-7.304 2.511-11.23 0-4.064-1.187-7.168-3.606-9.45-2.374-2.283-5.616-3.333-9.907-3.333-3.47 0-6.711.958-9.542 2.967a21.481 21.481 0 00-6.94 7.99c-1.688 3.332-2.51 6.939-2.51 10.774.137 9.085 4.474 13.741 12.829 13.741zm118.38-22.826c0 6.072-1.324 11.596-4.063 16.48-2.74 4.885-6.437 8.583-11.094 11.368-4.657 2.74-9.679 4.063-15.157 4.063-4.52 0-8.583-.958-11.961-2.739-3.333-1.78-6.072-4.428-7.898-7.624-1.918-3.333-2.876-7.168-2.876-11.459 0-5.98 1.415-11.459 4.291-16.253 2.876-4.884 6.711-8.582 11.368-11.367 4.793-2.74 9.906-4.064 15.431-4.064 6.711 0 12.052 1.918 16.024 5.844 3.926 3.698 5.935 8.948 5.935 15.75zm-29.858 22.826c3.835 0 7.168-1.095 10.136-3.104 2.967-2.009 5.387-4.885 7.03-8.355 1.689-3.47 2.511-7.304 2.511-11.23 0-4.064-1.187-7.168-3.607-9.45-2.373-2.283-5.615-3.333-9.906-3.333-3.47 0-6.711.958-9.542 2.967a21.481 21.481 0 00-6.939 7.99c-1.689 3.332-2.511 6.939-2.511 10.774.183 9.085 4.337 13.741 12.828 13.741zm70.261-34.879c-6.209 0-11.368 2.009-15.294 6.209-3.926 4.2-6.802 10.044-8.491 17.577l-2.146 10.043h8.355l-2.009 8.583h-24.744l2.008-8.583h6.711l7.761-33.555h-7.898l2.146-8.72h16.481l-3.333 14.472c2.968-5.387 6.209-9.222 9.679-11.596 3.47-2.374 7.989-3.606 13.513-3.606h2.009l-2.283 9.313c-1.278-.046-2.1-.137-2.465-.137zm80.533-9.542c4.291 0 8.263 1.188 11.596 3.607 3.332 2.42 5.98 5.615 7.761 9.679 1.78 4.063 2.739 8.354 2.739 13.148 0 4.794-.822 9.222-2.648 13.285-1.78 4.063-4.291 7.305-7.624 9.678-3.241 2.374-7.031 3.607-11.368 3.607-5.387 0-10.272-2.146-14.837-6.71v5.843h-24.972V65.01h8.856V15.34h-8.856V3.652h24.972v27.94c4.109-4.656 8.902-7.03 14.381-7.03zm-4.429 40.221c3.105 0 5.479-1.324 7.305-3.835 1.78-2.51 2.648-5.98 2.648-10.272 0-4.2-.822-7.396-2.648-9.678-1.781-2.146-4.2-3.333-7.168-3.333-3.104 0-5.615 1.324-7.396 3.835-1.78 2.51-2.647 5.844-2.647 10.044 0 3.926.958 7.03 2.739 9.541 1.689 2.511 4.2 3.698 7.167 3.698zm79.118-18.718v18.9h8.263v11.688H370.66v-3.926c-4.657 3.104-9.222 4.793-13.879 4.793-5.615 0-10.043-1.415-13.376-4.29-3.333-2.877-5.022-6.712-5.022-11.597 0-5.159 1.917-9.313 5.615-12.418 3.698-3.104 8.72-4.656 14.929-4.656 2.146 0 4.063.228 5.752.73 1.69.457 3.698 1.324 5.844 2.374V43.6c0-2.648-.822-4.657-2.374-6.209-1.689-1.552-4.063-2.282-7.304-2.282-3.47 0-6.712 1.323-9.314 4.063l-13.011-2.374c3.926-7.99 12.189-12.053 24.607-12.053 8.492 0 14.564 1.78 18.262 5.25 3.561 3.287 5.387 8.766 5.387 16.07zm-26.434 21.23c2.877 0 6.346-1.781 10.272-5.251v-4.52c-3.469-2.282-6.711-3.332-9.541-3.332-2.283 0-4.063.593-5.387 1.689-1.187 1.095-1.781 2.648-1.781 4.656-.137 4.52 2.146 6.757 6.437 6.757zm62.637-3.334c2.739 0 5.752-1.187 8.948-3.697v-22.69h-7.761V25.612h24.014v39.17h8.354V76.47h-24.516v-4.2c-5.022 3.332-10.043 5.021-14.837 5.021-4.885 0-8.72-1.324-11.459-4.063-2.739-2.74-4.063-6.574-4.063-11.368V37.664h-7.624V25.748h23.785v32.004c0 2.374.365 4.063 1.187 4.884.868.868 1.918 1.324 3.972 1.324z" fill="#fff"/><path d="M468.313 64.782H480V76.47h-11.687V64.781z" fill="#F4B301"/><path d="M107.879 26.205h10.272l2.009-8.857c.73-3.104 1.689-5.752 2.967-7.898a24.154 24.154 0 014.52-5.387c1.78-1.415 3.698-2.374 5.981-3.104A26.683 26.683 0 01140.795 0c1.552 0 2.968.137 4.292.228 1.323.229 2.51.457 3.606.73 1.096.229 2.009.594 2.876.96.822.365 1.553.73 2.146.958l-5.022 7.396c-.822-.593-2.009-1.096-3.469-1.415-1.416-.457-3.105-.594-4.794-.594-2.648 0-4.794.73-6.574 2.146-1.781 1.415-3.105 3.926-3.926 7.396l-1.918 8.354h13.605l-2.009 8.355h-13.513l-14.838 64.645h-9.906l14.837-64.645h-10.272l1.963-8.309zm132.395-1.187h8.354l2.511-10.5 10.272-4.2-3.332 14.7h10.5l-2.283 9.313h-10.5l-6.574 27.62c-.137.594-.365 1.325-.457 1.918-.137.73-.228 1.324-.228 2.146 0 1.415.365 2.51 1.187 3.104.822.594 2.009.959 3.698.959 1.781 0 4.063-.457 6.711-1.552l.822 6.94c-1.689.82-3.333 1.414-4.885 1.916a18.682 18.682 0 01-5.25.731c-2.009 0-3.926-.228-5.616-.73-1.689-.457-3.104-1.324-4.2-2.511-1.095-1.187-1.78-2.648-2.145-4.52-.366-1.918-.229-4.2.365-6.802l7.167-29.036h-8.263l2.146-9.496z" fill="#fff"/></svg>