<svg width="96" height="20" fill="none" xmlns="http://www.w3.org/2000/svg"><path d="M7.816 5.89l.219-.74h1.698l-.666 2.84H7.359a1.279 1.279 0 00-.593-1.032c-.384-.265-.904-.384-1.58-.384-.548 0-1.004.119-1.315.338-.31.22-.474.502-.474.84 0 .31.09.548.31.721.22.165.648.384 1.315.649l.548.219c1.15.474 1.908.958 2.319 1.433.41.475.593 1.05.593 1.772 0 .904-.337 1.625-1.031 2.173s-1.699.812-2.986.812c-1.214 0-2.1-.283-2.63-.858l-.118.667H0l.667-2.84h1.716c0 .475.22.858.621 1.123.402.265.959.402 1.653.402.593 0 1.077-.119 1.433-.356.356-.238.53-.548.53-.932a1.11 1.11 0 00-.457-.931c-.31-.237-.84-.53-1.58-.813l-.739-.283c-.767-.338-1.342-.721-1.717-1.15-.374-.43-.547-.959-.547-1.58 0-.53.146-1.032.456-1.46.31-.43.74-.813 1.315-1.05.575-.265 1.196-.384 1.89-.384.995-.082 1.88.2 2.575.803zm12.71 3.341c0 1.214-.265 2.32-.813 3.296a6.03 6.03 0 01-2.219 2.274 5.85 5.85 0 01-3.031.813c-.904 0-1.717-.192-2.392-.548a3.911 3.911 0 01-1.58-1.525c-.383-.667-.575-1.434-.575-2.292 0-1.196.283-2.292.858-3.25a6.381 6.381 0 012.274-2.274 6.094 6.094 0 013.086-.813c1.342 0 2.41.384 3.205 1.17.785.739 1.187 1.789 1.187 3.15zm-5.972 4.566a3.53 3.53 0 002.027-.621 4.14 4.14 0 001.406-1.671 5.115 5.115 0 00.503-2.246c0-.813-.238-1.434-.722-1.89-.474-.457-1.123-.667-1.981-.667a3.24 3.24 0 00-1.908.593 4.298 4.298 0 00-1.388 1.598 4.705 4.705 0 00-.502 2.155c.027 1.817.894 2.748 2.565 2.748zM38.23 9.231c0 1.214-.265 2.32-.812 3.296a6.03 6.03 0 01-2.22 2.274 5.85 5.85 0 01-3.03.813c-.904 0-1.717-.192-2.393-.548a3.968 3.968 0 01-1.58-1.525c-.383-.667-.575-1.434-.575-2.292 0-1.196.283-2.292.859-3.25a6.382 6.382 0 012.273-2.274 6.094 6.094 0 013.086-.813c1.343 0 2.41.384 3.205 1.17.785.739 1.187 1.789 1.187 3.15zm-5.971 4.566c.767 0 1.433-.22 2.027-.621a4.14 4.14 0 001.406-1.671 5.114 5.114 0 00.502-2.246c0-.813-.237-1.434-.721-1.89-.475-.457-1.123-.667-1.982-.667a3.24 3.24 0 00-1.908.593 4.296 4.296 0 00-1.388 1.598 4.705 4.705 0 00-.502 2.155c.037 1.817.867 2.748 2.566 2.748zM46.31 6.82c-1.241 0-2.273.402-3.058 1.242-.785.84-1.36 2.01-1.698 3.516l-.43 2.008h1.671l-.401 1.717h-4.95l.403-1.717h1.342l1.552-6.71h-1.58l.43-1.745h3.296l-.667 2.895c.594-1.078 1.242-1.845 1.936-2.32.694-.474 1.598-.72 2.703-.72h.401l-.456 1.862c-.256-.01-.42-.027-.493-.027zm16.107-1.908c.859 0 1.653.238 2.32.722a4.665 4.665 0 011.552 1.935c.356.813.547 1.671.547 2.63 0 .959-.164 1.844-.53 2.657-.355.813-.857 1.46-1.524 1.936-.648.475-1.406.721-2.273.721-1.078 0-2.055-.43-2.968-1.342v1.169h-4.994v-2.338h1.771V3.068h-1.771V.73h4.994v5.588c.822-.93 1.78-1.406 2.876-1.406zm-.885 8.045c.62 0 1.095-.265 1.46-.768.357-.502.53-1.196.53-2.054 0-.84-.164-1.48-.53-1.936a1.794 1.794 0 00-1.433-.666 1.74 1.74 0 00-1.48.767c-.355.502-.529 1.169-.529 2.009 0 .785.192 1.406.548 1.908.338.502.84.74 1.434.74zm15.823-3.744v3.78h1.653v2.337h-4.876v-.785c-.931.621-1.844.959-2.776.959-1.123 0-2.008-.283-2.675-.858-.666-.576-1.004-1.343-1.004-2.32 0-1.031.383-1.862 1.123-2.483s1.744-.931 2.985-.931c.43 0 .813.045 1.15.146.339.09.74.264 1.17.474V8.72c0-.53-.165-.932-.475-1.242-.338-.31-.813-.457-1.461-.457-.694 0-1.342.265-1.863.813l-2.602-.475c.785-1.598 2.438-2.41 4.922-2.41 1.698 0 2.912.356 3.652 1.05.712.657 1.077 1.753 1.077 3.214zm-5.287 4.246c.576 0 1.27-.357 2.055-1.05v-.904c-.694-.457-1.342-.667-1.908-.667-.457 0-.813.119-1.078.338-.237.22-.356.53-.356.931-.027.904.43 1.352 1.287 1.352zm12.528-.667c.548 0 1.15-.237 1.79-.74V7.516h-1.553V5.122h4.803v7.834h1.67v2.338h-4.902v-.84c-1.005.666-2.01 1.004-2.968 1.004-.977 0-1.744-.264-2.292-.812-.547-.548-.812-1.315-.812-2.274v-4.84h-1.525V5.15h4.757v6.4c0 .475.073.813.237.977.174.174.384.265.795.265z" fill="#fff"/><path d="M93.663 12.956H96v2.338h-2.337v-2.338z" fill="#F4B301"/><path d="M21.576 5.241h2.054l.402-1.771c.146-.621.338-1.15.593-1.58.265-.43.576-.785.904-1.077.357-.283.74-.475 1.197-.621A5.34 5.34 0 0128.159 0c.31 0 .594.027.858.046.265.045.503.091.722.146.219.045.401.118.575.191.164.074.31.147.429.192l-1.004 1.48a1.893 1.893 0 00-.694-.284c-.283-.09-.621-.118-.959-.118-.53 0-.959.146-1.315.429-.356.283-.62.785-.785 1.479l-.384 1.67h2.721l-.401 1.672h-2.703l-2.968 12.929h-1.98l2.967-12.93h-2.055l.393-1.661zm26.479-.237h1.67l.503-2.1 2.054-.84-.666 2.94h2.1l-.457 1.862h-2.1l-1.315 5.524c-.027.119-.073.265-.09.384a2.132 2.132 0 00-.046.429c0 .283.073.502.237.62.164.12.402.193.74.193.356 0 .812-.092 1.342-.31l.164 1.387a7.414 7.414 0 01-.977.383 3.74 3.74 0 01-1.05.147c-.402 0-.785-.046-1.123-.146a1.748 1.748 0 01-.84-.503c-.22-.237-.356-.53-.43-.904-.072-.383-.045-.84.074-1.36l1.433-5.807h-1.652l.429-1.9z" fill="#fff"/></svg>