<svg xmlns="http://www.w3.org/2000/svg" width="933.333" height="933.333" preserveAspectRatio="xMidYMid meet" version="1.0" viewBox="0 0 700 700"><metadata>Created by potrace 1.11, written by Peter Selinger 2001-2013</metadata><g fill="#000" stroke="none"><path d="M2848 5655 c-2 -1 -39 -5 -83 -9 -241 -18 -548 -114 -730 -228 -175 -111 -354 -293 -449 -459 -28 -50 -80 -184 -90 -234 -23 -115 -27 -154 -27 -265 -2 -401 150 -660 536 -913 120 -78 319 -182 435 -226 47 -18 94 -37 105 -42 11 -4 58 -22 105 -40 340 -127 661 -304 778 -428 117 -124 146 -363 64 -526 -63 -126 -271 -263 -442 -291 -14 -3 -31 -7 -38 -9 -53 -19 -365 -27 -492 -13 -326 37 -571 173 -668 372 -29 60 -47 123 -57 204 -1 15 -3 29 -4 32 0 3 -159 6 -353 5 l-352 0 -17 -75 c-9 -41 -26 -115 -38 -165 -11 -49 -34 -148 -51 -220 -17 -71 -32 -139 -35 -150 -7 -34 -12 -57 -34 -145 -11 -47 -25 -107 -31 -135 -7 -27 -13 -57 -15 -65 -2 -8 -13 -55 -24 -103 -12 -48 -21 -93 -21 -100 0 -16 691 -18 702 -1 4 6 12 39 18 75 23 142 30 179 36 179 2 0 23 -18 46 -41 38 -36 199 -149 212 -149 3 0 29 -11 58 -24 51 -24 163 -62 203 -70 11 -3 40 -9 65 -14 25 -6 65 -14 90 -17 24 -4 47 -8 50 -10 27 -16 428 -24 595 -12 107 8 124 10 255 33 141 23 170 31 305 76 210 69 387 177 525 317 114 116 129 135 197 254 30 53 78 173 89 222 37 159 48 353 31 504 -31 266 -149 491 -353 665 -108 94 -113 97 -214 162 -205 132 -380 219 -730 361 -385 156 -524 221 -630 293 -126 85 -178 208 -157 370 27 208 218 360 522 415 80 14 388 14 480 0 141 -21 333 -93 383 -142 7 -7 17 -13 21 -13 21 0 133 -129 165 -190 34 -64 71 -202 58 -215 -3 -3 -1 -5 4 -6 46 -2 695 -1 698 2 4 4 66 257 107 434 10 44 39 166 64 270 41 166 68 281 80 336 2 9 8 34 14 55 21 77 50 71 -336 70 l-348 -1 -42 -144 c-23 -79 -45 -146 -48 -149 -2 -3 -24 11 -47 29 -105 85 -218 152 -343 204 -36 15 -155 54 -180 59 -27 6 -124 26 -150 32 -28 6 -461 15 -467 9z" transform="translate(0.000000,700.000000) scale(0.100000,-0.100000)"/><path d="M5234 2401 c-2 -2 -4 -219 -4 -482 l0 -478 480 -1 c452 0 480 1 481 17 1 24 1 880 0 918 l-1 30 -476 0 c-262 0 -478 -2 -480 -4z" transform="translate(0.000000,700.000000) scale(0.100000,-0.100000)"/></g></svg>