<svg width="27" height="27" viewBox="0 0 27 27" fill="none" xmlns="http://www.w3.org/2000/svg">
<path d="M23.5261 26C23.4524 26 23.3787 26 23.3156 25.9895H23.2945C19.4421 25.5682 15.6844 24.2414 12.4214 22.1247C9.411 20.2081 6.79008 17.607 4.87439 14.5847C2.7587 11.3307 1.42193 7.56066 1.01142 3.7064V3.69587C0.948268 3.04296 1.14826 2.40059 1.57982 1.88458C2.00085 1.37911 2.60082 1.06318 3.26394 1.01053C3.34815 0.999999 3.4113 1 3.48498 1H7.28479C8.50578 1 9.55836 1.90564 9.7373 3.11668C9.89519 4.33825 10.2004 5.52822 10.6215 6.67607C10.9583 7.57119 10.7372 8.59267 10.0636 9.27717L8.46368 10.8778C8.44263 10.8884 8.44263 10.92 8.45316 10.9305C10.2531 14.0897 12.874 16.7119 16.0422 18.5021C16.0528 18.5021 16.0528 18.5126 16.0633 18.5126C16.0738 18.5126 16.0844 18.5126 16.0949 18.5021L17.6948 16.9014C18.1685 16.4381 18.779 16.1853 19.4421 16.1853C19.7368 16.1853 20.0315 16.238 20.3157 16.3433C21.4525 16.7645 22.6524 17.0699 23.8629 17.2279C25.1155 17.4069 26.0207 18.481 25.9996 19.7237V23.5147C25.9996 24.1676 25.747 24.789 25.2839 25.2628C24.8102 25.7367 24.1892 26 23.5261 26Z" stroke="black" stroke-width="2" stroke-miterlimit="10" stroke-linecap="round" stroke-linejoin="round"/>
</svg>
