<?xml version="1.0" encoding="utf-8"?>
<!-- Generator: Adobe Illustrator 25.2.1, SVG Export Plug-In . SVG Version: 6.00 Build 0)  -->
<svg version="1.1" id="Слой_1" xmlns="http://www.w3.org/2000/svg" xmlns:xlink="http://www.w3.org/1999/xlink" x="0px" y="0px"
	 viewBox="0 0 85 85" style="enable-background:new 0 0 85 85;" xml:space="preserve">
<style type="text/css">
	.st0{fill:#FFFFFF;}
	.st1{fill:#F3B301;}
</style>
<path class="st0" d="M49,20.5l1.1-3.7h8.5L55.2,31h-8.5c-0.1-2.1-1.1-3.9-3-5.2c-1.9-1.3-4.5-1.9-7.9-1.9c-2.7,0-5,0.6-6.6,1.7
	c-1.6,1.1-2.4,2.5-2.4,4.2c0,1.6,0.5,2.7,1.6,3.6c1.1,0.8,3.2,1.9,6.6,3.2l2.7,1.1c5.8,2.4,9.5,4.8,11.6,7.2c2.1,2.4,3,5.3,3,8.9
	c0,4.5-1.7,8.1-5.2,10.9c-3.5,2.7-8.5,4.1-14.9,4.1c-6.1,0-10.5-1.4-13.1-4.3l-0.6,3.3H9.9l3.3-14.2h8.6c0,2.4,1.1,4.3,3.1,5.6
	c2,1.3,4.8,2,8.3,2c3,0,5.4-0.6,7.2-1.8c1.8-1.2,2.6-2.7,2.6-4.7c0-1.9-0.7-3.5-2.3-4.7c-1.6-1.2-4.2-2.6-7.9-4.1l-3.7-1.4
	c-3.8-1.7-6.7-3.6-8.6-5.8c-1.9-2.1-2.7-4.8-2.7-7.9c0-2.6,0.7-5.2,2.3-7.3c1.6-2.1,3.7-4.1,6.6-5.3c2.9-1.3,6-1.9,9.5-1.9
	C41.1,16,45.5,17.4,49,20.5z"/>
<path class="st1" d="M63.5,55.8h11.7v11.7H63.5V55.8z"/>
<g>
</g>
<g>
</g>
<g>
</g>
<g>
</g>
<g>
</g>
<g>
</g>
</svg>
